<svg xmlns="http://www.w3.org/2000/svg" style="display:none;">

    <symbol id="icon-role" viewBox="0 0 32 32" fill="currentColor">
        <path d="M18,5V1h-4v4H6v26h20V5H18z M16,2c0.552,0,1,0.448,1,1s-0.448,1-1,1s-1-0.448-1-1S15.448,2,16,2z M24,29H8V7h6v2h4V7h6V29z"/>
        <path d="M16,11c-2.762,0-5,2.238-5,5s2.238,5,5,5s5-2.238,5-5S18.762,11,16,11z M16,19c-1.654,0-3-1.346-3-3s1.346-3,3-3
            s3,1.346,3,3S17.654,19,16,19z"/>
        <path d="M12,23c-1.104,0-2,0.896-2,2v2h12v-2c0-1.104-0.896-2-2-2H12z"/>
    </symbol>

    <symbol id="icon-activity" viewBox="0 0 32 32" fill="currentColor">
        <path d="M21 14.414l4.293 4.293 1.414-1.414L21 11.586l-10 10-4.293-4.293-1.414 1.414L11 24.414"/>
        <path d="M1 4v24h30V4H1zm28 22H3V10h26v16z"/>
    </symbol>

    <symbol id="icon-home" viewBox="0 0 32 32" fill="currentColor">
        <path d="M16,1L2,15l3,3v13h22V18l3-3L16,1z M25,29H7V16l9-9l9,9V29z"/>
        <circle cx="16" cy="16" r="2"/>
    </symbol>

    <symbol id="icon-bar-chart" viewBox="0 0 32 32" fill="currentColor">
        <polygon points="2,26 2,5 1,5 1,26 1,27 2,27 31,27 31,26"/>
        <rect x="4" y="16" width="7" height="8"/>
        <path d="M20,8h-7v16h7V8z M18,22h-3V10h3V22z"/>
        <rect x="22" y="13" width="7" height="1"/>
        <rect x="22" y="15" width="7" height="1"/>
        <rect x="22" y="17" width="7" height="1"/>
        <rect x="22" y="19" width="7" height="1"/>
        <rect x="22" y="21" width="7" height="1"/>
        <rect x="22" y="23" width="7" height="1"/>
    </symbol>

    <symbol id="icon-announcement" viewBox="0 0 32 32" fill="currentColor">
        <path d="M4,13.714V13H3v-1H1v8h2v-1h1v-0.714l2,0.571V22c0,1.104,0.896,2,2,2h4c1.104,0,2-0.896,2-2v-0.857L31,26V6L4,13.714z
     M12,22H8v-2.571l4,1.143V22z M29,23.349L5,16.491v-0.982l24-6.857V23.349z"/>
    </symbol>

    <symbol id="icon-menu-overflow" viewBox="0 0 32 32" fill="currentColor">
        <circle cx="4" cy="16" r="3"/>
        <circle cx="16" cy="16" r="3"/>
        <circle cx="28" cy="16" r="3"/>
    </symbol>

    <symbol id="icon-map" viewBox="0 0 32 32" fill="currentColor">
        <path d="M21 6L11 4 1 6v22l10-2 10 2 10-2V4L21 6zm-1 17.8l-8-1.6V6.24l8 1.6V23.8zM3 7.64l7-1.4V22.2l-7 1.4V7.64zM22 23.8V7.84l7-1.4V22.4l-7 1.4z"/>
    </symbol>

    <symbol id="icon-user" viewBox="0 0 32 32" fill="currentColor">
        <path d="M16,21c5.523,0,10-4.477,10-10S21.523,1,16,1S6,5.477,6,11S10.477,21,16,21z M16,3c4.411,0,8,3.589,8,8s-3.589,8-8,8
        s-8-3.589-8-8S11.589,3,16,3z"/>
        <path d="M24,23H8c-2.209,0-4,1.791-4,4v4h24v-4C28,24.791,26.209,23,24,23z"/>
    </symbol>

</svg>
